# xmcd
#
# Track frame offsets: 
#        187
#        15795
#        33307
#        47907
#        66012
#        80670
#        96267
#        113245
#        125662
#        140820
#
# Disc length: 2057 seconds
#
# Revision: 0
# Processed by: cddbd v1.5.2PL0 Copyright (c) Steve Scherf et al.
# Submitted via: ExactAudioCopy v0.95b4
#
DISCID=8608070a
DTITLE=Conway Twitty - Final Touches
DYEAR=1993
DGENRE=Country
TTITLE0=Two Timin' Two Stepper
TTITLE1=I Hurt For You
TTITLE2=Don't It Make You Lonely
TTITLE3=I'm The Only Thing (I'll Hold Against You)
TTITLE4=I Don't Love You
TTITLE5=The Likes Of Me
TTITLE6=An Old Memory Like Me
TTITLE7=Final Touches
TTITLE8=You Are To Me
TTITLE9=You Ought To Try It Sometime
EXTD=
EXTT0=
EXTT1=
EXTT2=
EXTT3=
EXTT4=
EXTT5=
EXTT6=
EXTT7=
EXTT8=
EXTT9=
PLAYORDER=
